<?xml version="1.0" standalone="no"?>
<!DOCTYPE svg PUBLIC "-//W3C//DTD SVG 20010904//EN"
 "http://www.w3.org/TR/2001/REC-SVG-20010904/DTD/svg10.dtd">
<svg version="1.0" xmlns="http://www.w3.org/2000/svg"
 width="900.000000pt" height="822.000000pt" viewBox="0 0 900.000000 822.000000"
 preserveAspectRatio="xMidYMid meet">

<g transform="translate(0.000000,822.000000) scale(0.100000,-0.100000)"
fill="#000000" stroke="none">
<path d="M5568 8153 c-16 -8 -28 -19 -28 -25 0 -6 -6 -16 -14 -22 -8 -6 -17
-37 -21 -68 -6 -51 -4 -58 14 -70 35 -21 24 -28 -21 -12 -23 8 -49 13 -58 12
-8 -1 -27 6 -43 16 -21 14 -37 17 -68 12 -77 -12 -98 -60 -51 -118 45 -57 126
-138 139 -138 7 0 13 -4 13 -9 0 -6 17 -12 38 -14 20 -2 -6 -5 -58 -7 -130 -6
-161 -4 -169 7 -13 21 -52 25 -77 8 -33 -22 -28 -54 13 -80 39 -24 42 -51 8
-67 -20 -9 -34 -9 -59 0 -18 7 -40 12 -49 12 -24 0 -22 37 3 50 15 8 20 21 20
50 0 39 -1 40 -34 40 -19 0 -36 -3 -38 -7 -1 -5 -16 -15 -33 -23 -29 -15 -30
-18 -33 -93 -2 -62 0 -78 13 -83 17 -7 21 -34 5 -34 -5 0 -10 -9 -10 -20 0
-11 5 -20 10 -20 6 0 10 -37 10 -91 l0 -90 -22 15 c-13 10 -44 16 -74 16 -47
0 -52 2 -47 20 3 11 9 20 14 20 31 0 -16 106 -51 115 -44 12 -632 6 -647 -6
-15 -13 -17 -55 -3 -64 14 -8 1 -32 -20 -38 -16 -4 -18 -13 -13 -88 3 -46 11
-87 17 -91 6 -4 -26 -8 -71 -8 -72 0 -84 3 -95 20 -7 11 -18 20 -25 20 -6 0
-13 5 -15 11 -5 14 -81 22 -273 26 -164 4 -219 -4 -272 -44 -18 -13 -33 -21
-33 -18 0 4 -7 0 -15 -9 -8 -8 -15 -21 -15 -28 0 -10 -2 -10 -8 -1 -6 9 -92
13 -330 15 -200 2 -325 7 -330 13 -4 6 -18 10 -32 11 -27 1 -47 7 -95 29 -54
23 -91 36 -113 38 -12 1 -22 4 -22 8 0 3 -37 9 -82 13 -46 4 -85 11 -86 16 -2
6 -8 8 -13 4 -5 -3 -9 0 -9 5 0 6 -8 11 -17 11 -10 0 -31 7 -47 15 -32 17
-112 20 -121 5 -3 -5 -30 -10 -58 -10 -29 0 -72 -5 -97 -11 -25 -7 -72 -11
-104 -11 -47 0 -68 -5 -97 -25 -34 -22 -45 -24 -128 -21 -50 2 -91 0 -91 -4 0
-5 -6 -8 -13 -8 -8 0 -22 -9 -32 -20 -10 -11 -24 -20 -32 -20 -7 0 -13 -5 -13
-11 0 -5 -4 -7 -10 -4 -5 3 -10 1 -10 -4 0 -6 -6 -11 -13 -11 -7 0 -23 -11
-35 -25 -12 -14 -28 -25 -35 -25 -14 0 -41 -39 -33 -47 3 -3 -8 -17 -24 -31
-24 -22 -30 -34 -30 -68 0 -75 3 -74 -139 -74 -139 0 -198 -17 -222 -63 -7
-12 -18 -26 -25 -32 -14 -11 -23 -179 -10 -206 6 -13 -1 -17 -35 -22 -23 -3
-45 -10 -48 -15 -3 -5 -19 -12 -35 -16 -15 -4 -35 -14 -43 -21 -8 -8 -22 -15
-31 -15 -30 0 -61 -29 -68 -64 -3 -21 -13 -36 -23 -39 -15 -4 -18 -17 -19 -78
-1 -41 -6 -75 -12 -77 -30 -10 24 -92 61 -92 10 0 21 -4 24 -10 3 -5 13 -10
21 -10 9 0 22 -7 30 -15 9 -8 33 -15 55 -15 26 0 42 -5 45 -15 4 -9 20 -16 38
-16 23 -1 18 -4 -21 -11 -29 -5 -53 -13 -53 -18 0 -5 -26 -14 -57 -21 -67 -15
-62 -13 -88 -24 -72 -29 -107 -48 -111 -60 -3 -8 -21 -17 -40 -21 -19 -3 -34
-10 -34 -14 0 -4 -9 -10 -20 -13 -12 -3 -20 -14 -20 -25 0 -21 -18 -32 -51
-32 -10 0 -19 -4 -19 -10 0 -5 -6 -10 -13 -10 -14 0 -40 -29 -44 -48 -2 -7 6
-21 16 -31 18 -18 37 -20 171 -23 103 -2 153 1 158 8 4 6 27 14 52 18 25 4 59
15 75 26 17 11 45 20 63 20 17 0 32 5 32 11 0 5 5 7 10 4 6 -4 16 -2 23 3 7 5
26 12 42 16 17 4 44 13 60 21 17 8 47 17 68 20 20 3 37 10 37 15 0 4 18 11 40
15 43 7 82 36 191 141 84 80 97 101 107 166 7 48 10 53 39 62 18 5 35 17 38
27 4 11 13 19 21 19 8 0 14 5 14 10 0 6 9 10 20 10 11 0 20 -4 20 -9 0 -6 9
-9 20 -8 11 1 20 5 20 9 0 20 30 5 36 -18 4 -15 27 -46 52 -69 41 -39 50 -43
108 -48 36 -2 70 -9 77 -15 6 -5 69 -12 138 -14 86 -3 132 -8 143 -17 9 -7 16
-10 16 -5 0 5 5 1 11 -8 6 -12 22 -18 45 -18 l36 0 -3 -213 c-3 -208 -2 -214
19 -237 12 -13 22 -30 22 -37 0 -7 5 -13 10 -13 6 0 10 -6 10 -14 0 -7 9 -25
21 -40 11 -14 15 -26 9 -26 -15 0 -9 -31 12 -53 13 -15 28 -18 77 -15 54 3 62
1 67 -17 4 -11 14 -29 23 -39 12 -14 13 -20 4 -23 -18 -6 -16 -31 2 -50 9 -8
37 -26 63 -40 26 -14 50 -31 55 -38 4 -7 21 -16 37 -20 17 -4 30 -10 30 -15 0
-4 9 -10 20 -13 11 -3 20 -14 20 -24 0 -21 78 -103 98 -103 18 0 15 -17 -8
-40 -14 -14 -33 -20 -61 -20 -42 0 -128 -44 -129 -66 0 -6 -11 -21 -25 -34
-22 -21 -25 -32 -25 -91 0 -50 -4 -68 -15 -73 -9 -3 -15 -18 -15 -39 0 -19 -7
-40 -15 -47 -8 -7 -15 -25 -15 -41 0 -15 -6 -34 -14 -41 -10 -10 -15 -82 -23
-293 -10 -294 -5 -363 29 -399 11 -13 16 -27 12 -43 -5 -18 1 -30 24 -51 16
-15 33 -42 37 -59 3 -18 12 -36 18 -40 7 -5 18 -19 25 -33 6 -14 16 -32 20
-40 27 -48 42 -84 42 -100 0 -10 5 -31 11 -47 6 -15 10 -29 9 -31 -1 -2 10
-14 24 -27 14 -13 28 -36 32 -52 8 -32 36 -63 58 -63 10 0 17 -16 21 -55 4
-30 11 -55 16 -55 13 0 59 -99 59 -126 0 -14 7 -27 15 -30 10 -4 12 -11 7 -18
-10 -13 -9 -22 6 -58 6 -16 16 -28 20 -28 5 0 12 -17 16 -38 3 -21 15 -47 26
-57 11 -10 20 -26 20 -37 0 -10 5 -18 11 -18 5 0 8 -4 4 -9 -3 -5 -1 -12 4
-15 4 -3 11 -24 15 -46 3 -22 11 -40 16 -40 6 0 10 -6 10 -14 0 -7 9 -25 20
-39 11 -14 20 -32 20 -40 0 -8 7 -20 15 -27 9 -7 13 -15 10 -18 -2 -3 10 -17
27 -32 30 -26 31 -29 24 -87 -6 -51 -4 -63 14 -85 11 -15 20 -35 20 -46 0 -11
7 -27 15 -36 9 -8 16 -19 16 -23 0 -26 14 -55 30 -64 11 -5 19 -14 19 -20 0
-22 40 -51 80 -56 31 -4 47 -14 66 -38 13 -17 24 -36 24 -42 0 -16 49 -53 70
-53 11 0 27 11 35 24 14 21 16 55 13 226 -3 195 -4 202 -25 220 -13 10 -23 28
-23 39 0 12 -3 21 -7 21 -12 0 -33 51 -33 77 0 13 -4 23 -9 23 -5 0 -12 15
-16 33 -8 41 -47 127 -58 127 -4 0 -6 4 -3 8 9 15 -16 92 -30 92 -8 0 -14 7
-14 15 0 19 32 33 38 17 2 -7 10 -12 18 -12 8 0 14 -8 14 -18 0 -10 10 -28 23
-40 17 -16 22 -30 19 -52 -3 -21 1 -32 12 -36 18 -7 22 -59 6 -69 -5 -3 -10
-15 -10 -26 0 -10 5 -19 10 -19 6 0 10 -11 10 -24 0 -14 7 -31 15 -40 8 -8 15
-19 15 -24 0 -6 14 -22 30 -36 27 -22 30 -30 24 -61 -5 -27 -3 -36 10 -41 9
-3 16 -12 16 -19 0 -6 9 -20 20 -30 11 -10 23 -35 26 -56 4 -21 13 -40 21 -43
11 -5 13 -16 8 -49 -5 -34 -3 -47 14 -69 12 -14 21 -31 21 -37 0 -5 8 -14 18
-20 14 -8 15 -12 5 -22 -15 -15 -17 -49 -3 -49 6 0 10 -8 10 -18 0 -10 11 -29
25 -42 14 -13 25 -31 25 -40 0 -27 34 -50 72 -50 20 0 41 -7 48 -15 6 -8 22
-17 33 -21 50 -15 57 -31 57 -131 0 -55 -4 -93 -10 -93 -5 0 -10 -9 -10 -20 0
-11 4 -20 9 -20 5 0 11 -12 13 -27 2 -22 10 -30 35 -37 20 -6 34 -18 37 -33
12 -45 50 -70 120 -78 36 -3 66 -11 66 -16 0 -5 12 -9 28 -9 41 0 106 -20 115
-36 4 -8 15 -14 23 -14 17 0 66 -33 103 -71 14 -14 41 -31 59 -38 17 -8 32
-17 32 -22 0 -5 11 -9 24 -9 14 0 31 -6 38 -14 8 -8 60 -19 121 -27 59 -7 107
-16 107 -21 0 -4 15 -8 33 -8 21 0 41 -8 52 -21 15 -16 27 -19 55 -14 37 6 87
-12 110 -40 7 -8 19 -15 26 -15 8 0 17 -14 21 -31 3 -17 12 -33 19 -36 16 -6
19 -33 4 -33 -21 0 -8 -28 35 -73 24 -26 53 -47 65 -47 11 0 20 -4 20 -9 0 -4
24 -11 54 -15 29 -3 66 -13 82 -21 17 -8 55 -15 91 -15 41 0 65 -5 70 -13 4
-8 16 -16 26 -20 9 -3 17 -16 17 -27 0 -11 5 -20 10 -20 6 0 10 -6 10 -13 0
-8 9 -22 20 -32 11 -10 22 -27 26 -39 7 -22 52 -88 92 -133 12 -14 22 -33 22
-42 0 -9 9 -22 20 -29 11 -7 20 -17 20 -22 0 -15 33 -50 47 -50 7 0 13 -5 13
-12 0 -6 18 -28 39 -50 29 -27 48 -38 70 -38 33 0 71 -17 84 -37 4 -7 18 -13
31 -13 15 0 31 -12 47 -38 15 -23 33 -38 49 -40 14 -2 29 -8 35 -13 5 -5 59
-9 120 -9 96 0 114 3 128 18 10 10 17 28 17 39 0 11 7 26 15 33 13 10 19 10
33 -4 10 -9 31 -16 45 -16 17 0 27 -5 27 -15 0 -26 38 -55 73 -55 57 0 67 21
67 143 0 65 4 107 10 107 16 0 11 66 -7 98 -22 38 -41 42 -212 42 l-137 0 -30
34 c-26 28 -40 35 -87 41 -33 4 -58 13 -61 21 -4 9 -21 14 -51 14 -25 0 -45 5
-45 11 0 5 -4 8 -9 5 -5 -3 -8 111 -7 263 1 184 -2 272 -10 282 -6 8 -14 36
-17 63 -2 27 -10 52 -17 56 -7 4 -10 12 -7 17 13 21 -18 63 -50 69 -18 3 -33
12 -33 19 0 19 -24 25 -95 25 -35 0 -66 4 -69 9 -3 5 -34 12 -68 16 -79 9 -98
25 -98 80 0 37 5 47 43 82 24 22 41 45 39 51 -2 7 1 12 7 12 15 0 15 142 0
157 -6 6 -15 30 -20 53 -11 48 -40 80 -73 80 -12 0 -31 6 -42 14 -11 8 -48 18
-82 22 l-61 7 -46 -47 c-24 -26 -48 -59 -52 -74 -7 -31 -52 -82 -70 -82 -7 0
-13 -4 -13 -9 0 -5 -12 -12 -27 -16 -15 -3 -30 -11 -34 -16 -3 -6 -37 -15 -75
-21 -38 -6 -72 -16 -76 -22 -4 -6 -52 -12 -113 -14 l-105 -4 0 226 c0 129 4
226 9 226 5 0 12 46 15 103 14 231 18 272 32 291 8 11 14 31 14 44 0 13 9 40
20 60 10 20 21 45 24 55 3 9 18 23 33 29 34 16 54 34 46 42 -4 3 1 6 10 6 9 0
17 5 17 10 0 6 8 10 18 10 26 0 67 25 65 38 -2 9 88 12 358 12 l361 0 20 -25
c11 -14 26 -25 33 -25 23 0 27 -35 23 -200 -3 -157 -3 -159 22 -185 14 -15 40
-33 58 -40 17 -8 32 -18 32 -23 0 -10 87 -35 130 -37 14 -1 32 -4 40 -8 8 -3
36 -8 63 -12 40 -5 48 -3 54 12 4 10 10 20 14 23 4 3 9 84 11 179 2 133 0 175
-9 178 -7 3 -13 11 -13 19 0 7 -11 16 -25 20 -14 3 -25 12 -25 20 0 8 -4 14
-9 14 -4 0 -6 11 -3 25 2 15 0 25 -7 25 -6 0 -11 7 -11 15 0 8 -7 15 -15 15
-8 0 -15 5 -15 12 0 6 -3 9 -6 5 -4 -3 -14 1 -22 10 -13 12 -17 44 -20 143
l-4 126 28 19 c15 10 47 20 71 23 24 2 43 8 43 12 0 18 63 32 116 26 54 -6 55
-6 94 34 22 22 36 40 33 40 -4 0 -2 5 5 12 7 7 12 19 12 28 0 9 11 27 25 40
14 13 25 29 25 36 0 6 9 14 20 17 11 3 20 12 20 21 0 9 5 16 10 16 6 0 10 43
10 108 0 100 2 110 23 130 13 12 30 22 39 22 30 0 48 36 55 106 3 38 11 72 16
76 6 3 13 47 15 97 3 69 8 91 18 91 8 0 14 5 14 11 0 5 4 8 9 5 10 -6 59 38
76 67 7 12 26 19 60 22 43 3 55 9 88 45 l38 41 -4 77 c-3 42 -8 92 -12 111
l-8 34 36 -7 c28 -5 46 -2 77 16 22 13 40 29 40 36 0 7 7 15 16 19 8 3 40 30
69 59 58 59 74 66 68 32 -9 -48 14 -59 135 -65 102 -5 117 -4 156 15 27 14 50
35 62 57 19 36 68 70 85 59 5 -3 9 -1 9 3 0 5 9 13 21 18 12 6 28 24 38 40 9
17 19 32 22 35 4 3 12 24 19 47 14 47 7 93 -15 93 -8 0 -15 4 -15 8 0 4 -17
14 -37 21 -21 8 -41 19 -45 24 -3 6 -37 13 -75 15 -169 10 -203 18 -203 51 0
6 -9 11 -20 11 -17 0 -20 7 -20 51 0 59 -11 83 -48 104 -25 15 -21 16 81 12
71 -2 110 0 117 7 5 7 35 13 66 14 60 2 88 17 100 55 5 16 8 17 15 6 16 -25
10 -49 -11 -49 -30 0 -45 -46 -30 -88 7 -19 9 -50 5 -73 -6 -34 -3 -43 17 -64
13 -13 37 -27 53 -30 37 -8 115 -47 115 -57 0 -5 14 -8 30 -8 17 0 30 5 30 10
0 12 152 14 166 1 5 -5 48 -11 95 -14 82 -6 87 -5 107 18 35 40 43 63 43 129
1 80 -7 106 -32 106 -10 0 -19 4 -19 9 0 5 -22 11 -49 15 -28 4 -51 12 -54 21
-3 7 -23 17 -44 21 -21 4 -47 13 -58 20 -13 9 -50 14 -110 14 -49 0 -95 4
-102 8 -6 4 -15 20 -18 35 -6 22 -4 27 12 27 11 0 28 9 38 20 15 16 16 25 7
43 -6 12 -13 36 -17 52 -8 37 -36 64 -74 71 -16 4 -32 12 -35 20 -3 8 -10 14
-16 14 -18 0 -70 43 -70 57 0 7 -7 13 -15 13 -10 0 -15 11 -15 35 0 19 -5 35
-11 35 -5 0 -8 4 -5 9 4 5 -14 17 -38 26 -45 17 -55 33 -56 85 0 39 -41 113
-92 169 -29 32 -50 64 -54 86 -3 19 -10 35 -15 35 -5 0 -9 7 -9 15 0 10 -10
15 -27 15 -50 0 -99 19 -128 50 -22 23 -38 30 -65 30 -20 0 -45 7 -56 15 -11
8 -42 14 -76 15 -47 0 -59 4 -68 20 -7 12 -25 22 -48 26 -34 5 -40 11 -53 47
-8 22 -21 42 -29 43 -8 2 -34 8 -57 15 -37 10 -47 9 -86 -10 -24 -12 -54 -21
-68 -21 -13 0 -37 -9 -54 -20 -16 -11 -37 -20 -45 -20 -16 1 -44 55 -54 105
-4 18 -16 35 -29 40 -12 6 -29 24 -37 42 -10 22 -24 34 -45 39 -16 4 -33 12
-37 18 -8 12 -279 22 -335 11 -51 -9 -65 -41 -72 -156 -3 -54 -3 -99 0 -99 4
0 9 -12 12 -27 3 -16 19 -37 36 -48 17 -11 31 -28 31 -37 0 -9 6 -21 14 -25
17 -10 36 -47 36 -69 0 -10 9 -27 19 -38 11 -12 20 -38 22 -61 2 -41 -20 -107
-40 -119 -6 -4 -11 -15 -11 -24 0 -9 -15 -24 -33 -32 -22 -10 -33 -23 -35 -41
-2 -15 -12 -35 -23 -45 -16 -14 -19 -31 -19 -106 0 -48 -4 -88 -9 -88 -14 0
-8 -33 9 -52 8 -9 29 -18 45 -21 17 -2 -2 -5 -41 -6 -68 -1 -72 0 -78 23 -3
14 -19 33 -35 42 -23 13 -33 30 -41 66 -7 26 -16 48 -20 48 -5 0 -11 59 -15
131 -6 109 -11 135 -26 150 -11 11 -19 33 -19 49 0 17 -5 30 -11 30 -5 0 -7 5
-4 10 3 6 1 11 -4 11 -26 3 -30 4 -37 12 -4 4 -132 7 -285 7 -229 0 -278 2
-282 14 -3 8 -19 17 -35 21 -19 4 -32 14 -35 27 -11 39 5 302 18 313 6 6 17
27 24 48 14 42 71 107 94 107 8 0 18 7 21 16 5 14 30 16 199 14 186 -2 237 3
237 21 0 5 7 9 15 9 9 0 19 8 22 18 4 9 11 20 17 24 13 9 10 352 -3 383 -5 11
-13 32 -19 47 -8 18 -20 28 -38 30 -33 4 -45 28 -15 28 12 0 21 5 21 10 0 6
43 10 109 10 83 0 110 -3 114 -14 3 -7 22 -16 41 -20 20 -4 36 -13 36 -20 0
-8 7 -16 15 -20 8 -3 15 -17 15 -31 0 -14 7 -28 15 -31 10 -4 15 -20 15 -52 0
-33 7 -54 25 -78 14 -18 25 -35 25 -38 0 -3 9 -15 20 -26 21 -21 50 -27 50
-10 0 16 18 12 39 -9 13 -13 21 -37 23 -67 2 -30 9 -50 18 -54 43 -20 55 -28
64 -45 22 -36 44 -52 92 -64 27 -7 51 -17 54 -22 4 -5 37 -11 74 -14 37 -3 73
-8 79 -12 19 -12 57 -15 57 -4 0 5 78 11 184 13 164 3 186 5 205 22 12 11 21
26 21 34 0 13 3 12 19 -2 10 -9 41 -19 70 -23 28 -3 51 -10 51 -14 0 -5 16 -9
36 -9 48 0 99 -25 112 -55 8 -18 22 -26 52 -31 22 -4 43 -11 46 -15 3 -5 13
-9 23 -9 9 0 23 -6 30 -12 6 -7 15 -13 19 -14 4 0 14 -3 22 -7 8 -3 39 -7 67
-10 41 -3 57 -9 73 -29 14 -19 26 -24 45 -20 14 2 31 0 38 -6 17 -15 591 -19
609 -5 7 6 32 14 55 18 23 4 59 20 78 35 21 17 43 26 52 23 9 -4 19 1 25 10 5
10 13 17 18 17 21 0 50 36 50 62 0 15 8 31 18 37 15 9 17 35 20 294 l3 284 39
13 c22 7 40 17 40 22 0 4 6 8 13 8 6 1 22 9 35 19 19 17 22 29 22 91 l0 72
-46 -51 c-25 -28 -53 -51 -61 -51 -8 0 -27 -8 -41 -19 -15 -10 -41 -22 -59
-25 -17 -4 -34 -15 -38 -24 -4 -9 -6 -146 -5 -304 1 -258 0 -288 -15 -288 -8
0 -18 -8 -22 -17 -8 -24 -32 -45 -66 -60 -15 -7 -30 -19 -33 -27 -3 -9 -25
-18 -50 -22 -24 -3 -44 -10 -44 -15 0 -5 -125 -9 -283 -9 -271 0 -283 1 -297
20 -8 11 -20 20 -26 20 -7 0 -14 4 -16 10 -1 5 -41 12 -88 16 -59 5 -92 13
-109 25 -13 11 -32 19 -42 19 -10 0 -21 5 -24 10 -3 6 -15 10 -27 10 -11 0
-22 8 -25 18 -2 10 -21 24 -41 32 -20 7 -40 17 -43 22 -3 5 -29 11 -57 15 -29
3 -52 10 -52 14 0 5 -16 9 -35 9 -19 0 -35 5 -35 10 0 6 -7 10 -15 10 -8 0
-15 4 -15 9 0 5 -17 11 -39 15 -21 3 -44 13 -51 21 -7 8 -21 15 -32 15 -10 0
-17 4 -13 10 3 5 -8 16 -25 25 -16 8 -30 20 -30 25 0 6 -6 10 -12 10 -7 0 -30
17 -50 39 -28 28 -38 47 -38 71 0 18 -3 30 -7 27 -3 -4 -12 -2 -20 4 -10 9
-13 48 -13 160 0 82 4 149 9 149 12 0 22 51 28 144 5 90 -2 146 -20 146 -19 0
-42 32 -45 65 -2 17 -8 35 -13 40 -6 6 -87 11 -189 13 -99 2 -180 7 -180 12 0
4 -46 10 -102 12 -70 2 -103 7 -106 16 -2 7 -20 12 -42 12 -22 0 -62 5 -90 11
-41 9 -51 15 -56 36 -5 17 -2 30 7 37 8 6 19 20 25 31 7 12 24 21 43 23 35 4
71 29 71 49 0 20 328 19 336 -1 3 -8 27 -16 55 -20 27 -4 49 -11 49 -16 0 -6
9 -10 20 -10 11 0 20 5 20 10 0 7 148 10 423 10 417 0 424 0 443 -21 13 -14
27 -19 47 -16 17 2 31 -1 34 -9 2 -7 22 -15 43 -19 21 -4 46 -15 56 -26 9 -10
23 -19 30 -19 7 0 14 -4 16 -10 2 -5 33 -15 71 -22 37 -7 67 -16 67 -20 0 -5
7 -8 16 -8 8 0 40 -11 70 -25 30 -14 58 -25 63 -25 5 0 14 -7 21 -15 6 -7 32
-17 56 -21 24 -3 47 -10 50 -15 3 -5 16 -9 30 -9 14 0 27 -7 31 -16 3 -8 11
-13 18 -10 7 2 25 -2 41 -10 16 -9 39 -12 52 -9 15 4 31 0 41 -8 9 -8 34 -18
56 -22 22 -3 54 -15 70 -25 17 -9 44 -21 60 -25 34 -9 34 -10 55 -18 8 -3 35
-8 58 -11 24 -4 51 -13 59 -21 8 -8 33 -15 56 -15 23 0 52 -3 65 -6 21 -6 22
-3 22 44 0 28 -5 54 -10 57 -6 4 -36 9 -68 12 -31 3 -60 10 -63 15 -3 5 -29
11 -57 15 -29 3 -52 10 -52 15 0 5 -4 7 -9 3 -5 -3 -31 6 -58 20 -26 15 -70
31 -98 37 -27 6 -54 16 -60 23 -5 7 -32 15 -60 18 -27 3 -51 10 -53 16 -2 6
-15 11 -28 11 -14 0 -42 9 -62 20 -20 11 -58 22 -84 25 -27 4 -48 10 -48 15 0
4 -22 14 -50 21 -27 7 -50 16 -50 20 0 5 -16 11 -35 15 -19 3 -35 10 -35 14 0
4 -25 13 -55 20 -30 7 -55 17 -55 22 0 4 -9 8 -21 8 -12 0 -23 8 -26 19 -5 20
-30 31 -75 31 -16 0 -28 4 -28 9 0 5 -25 15 -55 21 -30 6 -55 15 -55 20 0 6
-198 11 -465 12 -296 2 -468 7 -473 13 -11 16 -34 18 -294 22 -179 3 -248 1
-248 -7 0 -6 -4 -8 -10 -5 -5 3 -10 26 -10 51 0 24 -4 44 -10 44 -5 0 -10 7
-10 15 0 8 -11 17 -25 21 -14 3 -25 10 -25 15 0 5 -106 9 -242 8 -191 -1 -249
-4 -270 -16z m482 -192 c0 -84 -3 -111 -15 -121 -18 -15 -20 -47 -3 -52 9 -3
8 -9 -4 -21 -13 -14 -37 -17 -126 -17 l-110 0 -4 88 c-2 49 -10 96 -18 108
-19 30 -62 54 -98 54 -29 0 -58 21 -45 33 3 4 1 7 -5 7 -7 0 -12 7 -12 15 0
13 31 15 220 15 l220 0 0 -109z m186 -328 c52 -5 73 -12 88 -28 12 -13 30 -20
41 -18 59 11 117 14 133 8 9 -4 89 -7 177 -8 149 -2 160 -3 170 -22 5 -11 20
-30 33 -43 18 -18 22 -33 22 -81 0 -32 -7 -77 -15 -100 -8 -22 -12 -41 -8 -41
3 0 1 -6 -5 -13 -6 -7 -12 -86 -13 -197 -2 -101 -4 -179 -7 -172 -2 7 -10 12
-18 12 -8 0 -14 6 -14 14 0 7 -9 16 -21 19 -11 3 -23 15 -26 26 -3 14 -17 23
-39 27 -19 3 -34 12 -34 20 0 8 -5 14 -11 14 -5 0 -7 5 -3 11 3 6 0 15 -7 20
-9 5 -13 24 -11 53 2 66 -20 111 -92 186 -26 27 -67 58 -92 70 -143 65 -107
60 -405 60 -221 0 -278 -3 -295 -14 -11 -8 -36 -16 -55 -18 l-34 -3 -3 -68
c-3 -63 -1 -69 27 -99 22 -23 27 -36 19 -43 -7 -7 -12 -6 -15 3 -6 15 -153 17
-153 2 0 -5 -6 -10 -14 -10 -7 0 -21 -11 -30 -25 -26 -39 -36 -30 -36 34 0 71
-23 118 -62 126 -19 5 -28 14 -33 36 -4 16 -13 29 -20 29 -8 0 -17 9 -20 20
-8 26 -49 70 -64 70 -16 0 -3 69 16 88 11 11 13 11 13 -1 0 -29 35 -45 115
-52 44 -4 89 -13 100 -21 15 -11 68 -14 243 -14 203 0 223 2 229 18 4 9 10 19
13 22 11 8 -19 70 -34 70 -8 0 -16 4 -18 8 -1 5 -28 16 -58 25 l-55 17 127 -4
c101 -2 128 0 132 11 5 11 10 11 29 -2 14 -8 55 -18 93 -22z m-1032 -228 c8
-8 21 -15 30 -15 8 0 24 -12 35 -27 12 -16 26 -34 31 -40 6 -7 8 -13 4 -13 -4
0 10 -16 30 -35 21 -19 42 -35 47 -35 5 0 9 -36 9 -80 0 -47 -4 -80 -10 -80
-16 0 -12 -32 7 -52 11 -12 30 -18 59 -18 36 0 47 5 73 36 17 19 35 33 40 30
5 -3 21 6 35 19 43 40 68 33 134 -36 l59 -62 6 -149 c4 -83 4 -154 1 -159 -3
-5 -98 -9 -213 -9 -223 0 -204 4 -281 -57 -15 -13 -33 -23 -39 -23 -6 0 -11
-4 -11 -10 0 -5 -13 -25 -30 -43 -16 -19 -27 -37 -23 -41 3 -3 1 -6 -5 -6 -7
0 -12 -7 -12 -15 0 -9 -10 -30 -22 -46 -21 -28 -23 -40 -20 -124 2 -73 0 -96
-13 -108 -17 -18 -20 -54 -5 -59 6 -2 11 -36 11 -75 1 -68 3 -74 31 -98 16
-14 35 -25 43 -25 7 0 18 -7 25 -15 11 -13 57 -15 306 -15 l294 0 0 -30 c0
-18 7 -33 19 -39 16 -9 20 -28 26 -136 4 -69 11 -125 16 -125 4 0 11 -16 15
-35 3 -19 10 -35 15 -35 5 0 6 -7 2 -15 -3 -10 9 -29 36 -53 22 -20 54 -55 70
-77 l30 -40 178 3 c165 3 179 5 196 24 17 20 21 55 11 94 -5 20 -38 36 -102
49 -18 4 -36 13 -38 20 -3 7 -14 15 -25 18 -15 4 -19 14 -19 47 0 44 42 145
63 153 7 3 24 27 38 53 13 27 26 51 29 54 20 20 30 59 30 117 0 65 -16 133
-32 133 -4 0 -8 6 -8 14 0 7 -7 19 -15 26 -8 7 -12 16 -9 21 3 5 -2 16 -10 25
-9 8 -16 24 -16 35 0 10 -4 19 -10 19 -5 0 -10 6 -10 13 0 8 -11 19 -25 25
-14 7 -25 20 -25 31 0 11 -5 23 -10 26 -6 3 -8 17 -5 31 3 13 7 35 10 49 l5
25 129 0 c102 0 131 -3 141 -15 7 -8 16 -12 21 -9 5 3 9 -1 9 -9 0 -7 11 -24
25 -37 14 -13 25 -28 25 -33 0 -6 16 -42 35 -82 26 -54 41 -74 59 -79 38 -9
114 5 132 25 9 11 29 19 44 19 14 0 30 4 36 10 5 5 24 11 43 12 29 3 35 -1 44
-26 14 -42 43 -66 78 -66 36 0 64 -13 102 -48 24 -23 31 -25 47 -14 29 18 57
15 90 -9 21 -16 37 -20 59 -16 22 5 36 1 48 -11 10 -9 34 -25 53 -35 19 -10
51 -39 70 -65 19 -25 43 -53 53 -61 9 -9 17 -19 17 -23 0 -5 9 -17 20 -28 11
-11 20 -29 20 -41 0 -11 7 -27 15 -35 8 -9 15 -28 15 -43 0 -16 7 -34 15 -41
8 -7 15 -18 15 -24 0 -7 18 -30 40 -51 22 -21 40 -48 40 -59 0 -23 37 -66 57
-66 7 0 13 -4 13 -10 0 -5 6 -10 14 -10 7 0 19 -7 27 -16 7 -8 28 -23 47 -33
l35 -18 -40 -16 c-22 -9 -43 -22 -46 -30 -3 -9 -19 -18 -35 -22 -17 -3 -34
-16 -40 -30 -9 -19 -17 -23 -42 -20 -16 2 -30 0 -30 -5 0 -5 -61 -10 -136 -12
-114 -2 -137 -6 -145 -20 -5 -9 -27 -19 -49 -23 -25 -4 -47 -16 -59 -31 -10
-13 -26 -24 -35 -24 -9 0 -25 -9 -37 -21 -11 -11 -27 -18 -34 -15 -8 3 -15 2
-17 -2 -2 -4 -24 -17 -50 -30 -57 -28 -62 -55 -17 -91 28 -22 31 -22 63 -7 19
9 41 16 49 16 9 0 23 8 33 18 13 13 38 18 106 20 l88 4 0 -56 c0 -55 19 -96
45 -96 5 0 20 -10 31 -23 27 -27 113 -55 123 -39 5 8 15 7 35 -3 20 -11 43
-13 75 -9 36 5 50 2 60 -10 7 -9 22 -16 32 -16 25 0 32 -15 14 -30 -8 -7 -15
-21 -15 -31 0 -13 -10 -20 -37 -25 -64 -12 -112 -45 -119 -82 -7 -37 -26 -45
-100 -40 -40 2 -51 7 -59 26 -5 12 -13 22 -17 22 -5 0 -8 6 -8 14 0 15 -30 26
-74 26 -42 0 -114 -38 -149 -77 -16 -18 -35 -33 -43 -33 -8 0 -20 -16 -28 -35
-14 -34 -17 -35 -68 -35 -64 -1 -135 -16 -153 -33 -10 -11 -10 -20 2 -50 8
-20 19 -37 23 -37 5 0 8 -13 8 -30 -1 -16 4 -36 11 -44 7 -8 11 -34 9 -58 -3
-43 -3 -43 -44 -46 -31 -2 -49 -11 -74 -38 -19 -18 -40 -34 -47 -34 -7 0 -17
-9 -23 -20 -7 -14 -21 -20 -45 -20 -56 0 -65 -18 -65 -127 0 -76 -4 -100 -17
-115 -11 -12 -17 -38 -18 -71 -2 -72 -10 -87 -50 -87 -59 0 -65 -16 -65 -160
0 -101 -3 -129 -14 -133 -8 -3 -17 -19 -21 -35 -3 -18 -14 -32 -26 -35 -10 -3
-19 -12 -19 -21 0 -9 -4 -16 -8 -16 -5 0 -16 -15 -24 -34 -16 -33 -17 -34 -94
-38 -45 -2 -79 -8 -81 -15 -2 -6 -13 -9 -23 -6 -11 3 -35 -2 -54 -11 -19 -9
-43 -16 -55 -16 -12 0 -21 -4 -21 -10 0 -5 -6 -10 -14 -10 -15 0 -46 -42 -46
-63 0 -8 -7 -20 -14 -27 -11 -8 -12 -18 -5 -36 5 -14 9 -82 9 -152 0 -115 2
-128 22 -149 12 -13 25 -23 30 -23 16 0 48 -40 48 -61 0 -29 16 -55 58 -94
l37 -34 -19 -36 c-15 -27 -17 -38 -8 -47 7 -7 12 -38 12 -70 0 -45 -3 -58 -15
-58 -8 0 -15 4 -15 8 0 4 -18 7 -40 6 -22 -1 -40 2 -40 7 0 4 -16 11 -35 15
-19 3 -35 12 -35 19 0 7 -9 15 -19 18 -18 4 -20 17 -23 177 -3 150 -5 173 -20
184 -10 7 -18 18 -18 23 0 6 -9 13 -21 16 -11 3 -25 19 -32 37 -6 17 -21 33
-32 36 -11 3 -196 3 -412 2 -342 -3 -394 -5 -405 -19 -17 -21 -64 -49 -81 -49
-7 0 -27 -16 -44 -35 -22 -24 -40 -35 -59 -35 -42 0 -64 -26 -64 -75 0 -29 -6
-47 -19 -59 -11 -10 -23 -37 -27 -59 -3 -23 -12 -51 -20 -61 -9 -13 -11 -38
-7 -82 5 -51 2 -70 -16 -106 -23 -49 -26 -68 -10 -68 13 0 10 -120 -3 -137 -6
-7 -10 -116 -10 -253 0 -216 2 -243 18 -261 9 -10 23 -19 31 -19 7 0 13 -4 13
-8 0 -15 67 -38 86 -31 10 4 54 8 96 8 53 1 81 5 91 15 8 8 39 18 68 22 30 3
59 12 64 18 6 7 28 16 49 19 22 4 44 13 48 22 5 8 14 15 21 15 7 0 26 15 43
33 16 18 37 36 45 39 16 6 35 40 43 79 7 33 30 43 59 25 12 -8 39 -18 60 -21
34 -7 37 -10 37 -41 0 -22 6 -37 15 -40 10 -4 15 -21 15 -53 0 -41 -3 -49 -31
-65 -17 -10 -36 -30 -42 -44 -6 -15 -17 -31 -25 -35 -9 -6 -11 -26 -6 -75 6
-62 10 -70 52 -114 36 -37 55 -49 89 -54 24 -3 43 -10 43 -15 0 -5 9 -9 20 -9
11 0 20 5 20 10 0 15 28 12 55 -6 15 -10 36 -14 52 -11 26 5 54 -6 81 -30 7
-7 10 -13 7 -13 -4 0 0 -11 9 -25 9 -13 16 -39 16 -58 0 -18 5 -38 11 -44 6
-6 13 -72 16 -157 5 -133 4 -148 -13 -167 -15 -17 -16 -24 -6 -39 7 -12 12
-57 12 -111 0 -92 10 -129 34 -129 8 0 19 -7 26 -15 15 -18 50 -20 51 -2 0 9
2 9 6 0 2 -7 20 -15 39 -19 19 -3 34 -10 34 -15 0 -5 15 -9 34 -9 19 0 38 -4
41 -10 3 -5 13 -10 21 -10 8 0 24 -9 36 -20 12 -11 27 -20 34 -20 6 0 14 -6
17 -13 4 -11 35 -12 146 -9 140 5 160 0 126 -28 -16 -14 -21 -50 -6 -50 5 0 7
-9 4 -20 -4 -14 -14 -20 -34 -20 -15 0 -30 4 -34 10 -3 5 -12 7 -20 3 -8 -3
-15 0 -15 6 0 6 -13 11 -30 11 -16 0 -30 -5 -30 -11 0 -6 -7 -3 -16 5 -22 23
-47 20 -73 -8 -18 -19 -21 -31 -16 -55 l7 -31 -61 0 c-34 0 -61 4 -61 10 0 6
-4 9 -8 8 -5 -2 -27 16 -50 38 -31 30 -53 43 -82 47 -22 3 -51 14 -66 26 -15
12 -39 21 -55 21 -22 0 -29 5 -34 29 -8 35 -40 71 -64 71 -12 0 -26 15 -39 44
-12 24 -33 53 -47 64 -14 11 -25 24 -25 29 0 6 -9 18 -19 27 -11 10 -23 31
-26 47 -4 16 -15 34 -26 39 -10 6 -19 20 -19 30 0 11 -4 20 -9 20 -5 0 -12 13
-16 30 -4 16 -11 30 -16 30 -5 0 -8 3 -7 8 2 4 -1 8 -5 9 -13 4 -37 31 -37 42
0 14 -26 19 -134 25 -49 3 -92 10 -96 16 -3 5 -28 13 -56 17 -60 8 -94 28 -94
57 0 12 -4 26 -8 32 -5 5 -15 28 -22 52 -7 23 -17 42 -22 42 -4 0 -8 7 -8 15
0 8 -11 17 -25 21 -14 3 -25 12 -25 19 0 7 -8 15 -17 18 -10 4 -29 15 -43 26
-14 11 -43 21 -65 23 -22 1 -43 6 -46 12 -4 5 -30 11 -58 14 -28 2 -51 8 -51
12 0 4 -34 10 -76 13 -41 3 -81 10 -88 16 -7 6 -16 8 -19 5 -3 -3 -16 1 -29
10 -12 9 -35 16 -50 16 -16 0 -28 4 -28 10 0 5 -3 9 -7 8 -17 -3 -63 26 -68
44 -4 10 -12 18 -20 18 -7 0 -15 3 -17 8 -4 10 -86 62 -98 62 -5 0 -10 4 -10
8 0 9 -88 32 -124 32 -13 0 -36 6 -52 14 -16 7 -43 19 -60 26 -17 8 -36 25
-42 40 -7 15 -23 33 -37 40 -24 13 -25 17 -25 122 0 59 -4 108 -8 108 -5 0
-15 18 -22 39 -9 27 -20 41 -36 45 -13 4 -37 20 -54 36 -20 20 -41 30 -61 30
-39 0 -78 43 -79 86 0 34 -26 94 -41 94 -5 0 -8 3 -7 8 1 4 -1 18 -5 32 -3 14
-9 55 -12 91 -5 56 -11 72 -38 102 -51 57 -53 60 -55 102 -4 76 -13 115 -28
115 -8 0 -14 5 -14 10 0 6 -8 10 -19 10 -21 0 -31 35 -31 111 0 27 -4 49 -10
49 -5 0 -10 18 -10 39 0 29 -7 48 -25 66 -13 15 -29 43 -36 62 -6 19 -13 32
-16 29 -3 -3 -15 1 -27 9 -11 8 -28 15 -38 15 -10 0 -18 5 -18 11 0 5 -4 8 -9
5 -5 -3 -14 1 -21 9 -7 8 -19 15 -26 15 -8 0 -14 5 -14 10 0 6 -9 10 -20 10
-15 0 -20 7 -20 28 -1 42 -23 64 -62 60 l-33 -3 1 -121 c1 -110 3 -124 23
-145 11 -12 21 -29 21 -36 0 -7 9 -22 20 -33 11 -11 20 -29 20 -40 0 -32 1
-33 31 -68 24 -27 29 -39 24 -66 -5 -24 -2 -36 14 -50 13 -12 21 -31 21 -52 0
-23 6 -38 20 -46 13 -8 20 -24 20 -44 0 -20 9 -39 25 -54 23 -21 25 -31 25
-107 0 -46 -4 -83 -9 -83 -12 0 -74 33 -82 43 -3 5 -10 8 -15 7 -5 -1 -13 7
-19 17 -5 10 -16 22 -22 26 -7 4 -13 18 -13 31 0 45 -12 85 -27 88 -11 2 -15
20 -16 72 -1 45 -6 71 -14 74 -7 2 -13 16 -13 32 0 20 -6 29 -21 33 -11 3 -23
15 -26 26 -3 12 -9 21 -14 21 -5 0 -9 6 -9 13 0 8 -9 22 -20 32 -12 11 -20 31
-20 49 0 17 -7 41 -15 52 -8 12 -11 24 -7 28 3 4 2 10 -4 14 -16 11 -65 98
-58 105 12 12 -8 65 -27 70 -15 4 -18 11 -13 35 5 23 1 36 -15 53 -12 13 -21
31 -21 41 0 10 -4 18 -8 18 -5 0 -15 25 -22 55 -7 30 -16 55 -20 55 -4 0 -11
25 -15 55 -3 30 -11 55 -16 55 -5 0 -9 7 -9 15 0 8 -11 17 -25 21 -14 3 -25
10 -25 15 0 5 -7 9 -15 9 -8 0 -17 11 -21 25 -3 14 -9 25 -13 25 -12 0 -31 49
-31 80 0 17 -4 30 -9 30 -5 0 -11 13 -14 29 -3 16 -12 35 -19 42 -23 24 -44
62 -58 107 -7 23 -17 42 -22 42 -4 0 -8 6 -8 14 0 8 -9 18 -21 21 -16 5 -18
10 -8 21 9 11 7 22 -6 51 -10 21 -23 41 -29 45 -14 10 -11 571 4 576 5 2 12
20 16 40 3 20 12 47 20 59 8 12 14 35 14 50 0 16 6 37 14 48 7 11 16 47 19 79
8 76 27 97 99 104 29 3 55 8 58 11 14 17 71 51 86 51 9 0 18 9 21 20 3 11 9
20 14 20 5 0 9 16 9 35 0 19 -4 35 -10 35 -5 0 -10 9 -10 19 0 13 -15 26 -43
40 -40 20 -100 72 -98 85 3 13 -11 55 -18 54 -11 -3 -101 44 -101 53 0 5 -7 9
-15 9 -8 0 -15 4 -15 9 0 5 -11 12 -25 15 -18 5 -25 13 -25 29 0 13 -5 28 -11
34 -7 7 -16 35 -20 64 -5 29 -12 55 -17 58 -5 3 -12 69 -16 145 -4 95 -10 142
-19 148 -6 4 -8 8 -3 8 5 0 3 7 -4 15 -15 18 -76 20 -86 3 -12 -18 -12 -140
-1 -159 11 -19 1 -89 -13 -89 -6 0 -11 -10 -11 -22 l-2 -23 -4 23 c-2 12 -10
22 -17 22 -11 0 -40 56 -37 73 0 4 -3 7 -9 7 -6 0 -10 81 -10 224 0 123 -3
231 -6 240 -3 9 -12 16 -20 16 -8 0 -14 5 -14 10 0 6 -16 10 -36 10 -20 0 -52
10 -72 22 -30 18 -54 22 -163 26 -71 3 -129 8 -129 12 0 5 -35 12 -77 16 -92
8 -102 17 -103 92 0 38 -5 57 -20 72 -21 21 -55 26 -65 10 -4 -6 -10 -8 -15
-5 -4 3 -10 -2 -14 -10 -4 -10 -20 -15 -53 -15 -50 0 -119 -28 -148 -60 -10
-11 -24 -20 -32 -20 -7 0 -13 -4 -13 -10 0 -5 -7 -10 -15 -10 -9 0 -18 -8 -22
-17 -3 -10 -15 -31 -26 -46 -12 -17 -17 -38 -14 -53 3 -15 -1 -28 -8 -30 -7
-3 -15 -18 -18 -34 -5 -21 -19 -36 -57 -57 -27 -15 -50 -33 -50 -39 0 -20 -45
-52 -82 -59 -21 -4 -38 -11 -38 -16 0 -5 -10 -9 -22 -9 -27 0 -88 -22 -88 -31
0 -4 -17 -10 -37 -14 -21 -4 -43 -11 -50 -17 -7 -5 -17 -7 -23 -3 -5 3 -10 1
-10 -4 0 -6 -18 -11 -39 -11 -23 0 -60 -10 -87 -25 -26 -14 -57 -25 -70 -25
-13 0 -26 -4 -29 -10 -3 -5 -30 -9 -58 -9 -29 1 -42 4 -30 6 13 2 23 9 23 14
0 5 11 14 25 19 14 5 25 14 25 20 0 5 9 10 20 10 12 0 38 9 60 20 22 11 50 20
62 20 13 0 34 8 47 17 14 9 47 20 75 25 28 4 52 12 54 18 2 5 11 10 20 10 30
0 62 41 62 81 0 47 -8 69 -26 69 -8 0 -14 4 -14 8 0 5 -25 14 -55 21 -30 7
-55 16 -55 19 0 4 -23 13 -52 20 -28 6 -54 16 -57 21 -3 4 -16 11 -28 15 -29
9 -30 40 -3 84 11 18 20 41 20 52 0 16 7 20 36 20 27 0 37 5 41 20 3 11 11 20
18 20 7 0 15 4 17 10 1 5 30 15 63 21 33 6 64 15 70 20 5 5 21 9 36 9 34 0 89
19 89 31 0 6 7 6 18 1 40 -21 71 28 51 82 -14 40 -48 56 -116 56 -61 0 -69 9
-59 65 4 21 13 35 21 35 8 0 15 4 15 9 0 5 79 11 179 13 172 3 180 4 204 26
14 13 27 38 29 56 3 28 0 35 -24 45 -31 14 -41 61 -13 61 9 0 18 8 22 18 9 27
65 82 84 82 9 0 22 7 30 16 26 32 67 44 153 45 48 1 89 5 92 10 3 5 13 9 23 9
10 0 24 6 30 13 7 9 36 15 80 16 38 1 85 6 103 12 18 5 57 9 85 9 29 0 53 5
53 10 0 16 70 12 86 -5 9 -8 26 -15 38 -15 13 0 31 -9 42 -21 14 -16 26 -19
51 -14 25 4 35 2 39 -10 7 -16 44 -21 44 -5 0 16 27 11 34 -6 4 -10 16 -15 33
-14 34 2 73 -9 73 -21 0 -5 9 -9 19 -9 11 0 23 -4 26 -10 3 -5 19 -10 36 -10
16 0 29 -5 29 -11 0 -7 11 -9 29 -6 21 5 34 1 47 -14 12 -13 23 -17 33 -12 9
4 158 10 331 13 307 5 315 6 318 25 2 17 9 20 40 17 26 -3 42 1 51 12 8 9 21
16 30 16 9 0 21 4 27 10 14 14 281 15 299 0 9 -7 27 -10 45 -7 35 7 60 0 60
-18 0 -6 9 -20 20 -30 18 -16 43 -18 306 -16 261 2 288 1 306 -15 16 -16 37
-18 150 -16 72 2 139 7 149 12 10 6 49 10 87 10 50 0 73 4 82 15 7 8 23 15 35
15 45 0 55 36 55 195 l0 145 49 0 c31 0 55 -6 65 -15z m-460 -55 c-4 -8 -9
-28 -12 -45 -6 -37 -17 -45 -64 -45 -21 0 -38 -5 -38 -10 0 -7 -68 -9 -197 -8
l-198 3 -3 30 c-5 55 -12 75 -27 75 -8 0 -15 3 -15 8 0 4 126 7 280 7 245 0
279 -2 274 -15z m1602 -15 c4 -8 17 -15 30 -15 28 0 74 -20 74 -32 0 -4 6 -8
13 -8 13 0 67 -53 67 -65 0 -5 7 -13 16 -20 11 -8 17 -30 18 -72 2 -41 8 -66
19 -78 9 -9 17 -25 17 -36 0 -11 7 -22 15 -25 8 -4 15 -12 15 -19 0 -7 12 -21
27 -31 14 -10 34 -27 45 -36 10 -10 22 -18 26 -18 5 0 19 -11 32 -25 13 -14
29 -25 37 -25 7 0 13 -4 13 -8 0 -9 88 -32 121 -32 24 0 54 -30 62 -62 4 -13
17 -37 31 -52 19 -23 29 -27 50 -22 15 4 26 2 26 -4 0 -6 -55 -10 -149 -10
-99 0 -152 -4 -157 -11 -5 -8 -9 -7 -14 1 -5 8 -35 14 -77 16 -45 1 -82 9
-105 21 -42 23 -69 48 -61 57 4 3 1 6 -6 6 -7 0 -19 6 -27 14 -7 8 -18 16 -24
18 -5 1 -10 19 -12 38 -1 19 -5 37 -8 40 -3 3 -9 13 -15 23 -5 10 -23 26 -40
35 -16 9 -31 20 -33 25 -2 4 -16 7 -30 7 -31 0 -52 35 -52 87 0 18 -4 33 -10
33 -5 0 -13 18 -16 40 -4 22 -11 43 -15 46 -5 3 -7 10 -4 15 4 5 0 9 -7 9 -7
0 -25 13 -39 28 -16 16 -48 34 -78 42 -29 8 -54 18 -57 22 -3 4 -57 8 -120 8
-93 0 -114 3 -114 15 0 8 -9 19 -20 25 -11 6 -20 20 -20 30 0 19 8 20 275 20
236 0 276 -2 281 -15z m1831 -2217 c78 3 93 0 101 -14 7 -12 23 -18 52 -19 23
0 45 -7 49 -14 5 -7 10 -12 12 -11 4 1 11 -1 51 -14 9 -3 21 -20 26 -38 l8
-33 -64 -3 c-36 -2 -70 2 -76 8 -5 5 -50 10 -100 10 -85 0 -156 15 -156 32 0
4 -13 8 -29 8 -27 0 -29 3 -33 45 -3 48 7 58 47 46 11 -3 61 -4 112 -3z"/>
<path d="M4845 8001 c-55 -27 -61 -29 -118 -41 -31 -7 -57 -17 -57 -22 0 -4
-8 -8 -19 -8 -10 0 -24 -7 -31 -15 -6 -8 -22 -17 -33 -21 -28 -9 -127 -103
-127 -121 0 -17 36 -53 53 -53 7 0 28 16 47 35 19 19 40 35 47 35 7 0 13 4 13
8 0 5 16 14 35 22 19 8 35 17 35 20 0 6 90 30 113 30 6 0 1 -7 -11 -16 -12 -8
-22 -23 -22 -33 0 -24 -31 -51 -58 -51 -11 0 -24 -4 -27 -10 -3 -5 -25 -10
-48 -10 -43 -1 -77 -18 -77 -39 0 -7 -21 -11 -59 -11 -54 0 -59 2 -65 25 -4
16 -13 25 -26 25 -10 0 -22 5 -25 10 -3 6 -33 10 -65 10 -61 0 -120 -24 -120
-48 0 -7 -7 -23 -15 -35 -38 -58 22 -147 100 -147 12 0 30 -8 41 -18 27 -26
214 -37 222 -14 5 15 168 17 177 2 3 -5 13 -10 22 -10 20 0 78 58 87 88 10 31
-2 82 -21 82 -11 0 -10 5 6 25 11 14 23 39 26 55 7 34 37 40 65 15 11 -10 51
-17 133 -21 134 -8 150 -2 161 64 11 72 -8 91 -94 97 -14 1 -33 5 -42 9 -10 4
-40 6 -68 4 -44 -3 -50 -1 -50 17 0 43 -12 62 -43 72 -24 7 -40 5 -62 -6z"/>
<path d="M3874 7718 c-16 -13 -35 -28 -42 -35 -7 -7 -18 -13 -23 -13 -5 0 -9
-7 -9 -15 0 -8 -16 -33 -36 -55 -37 -41 -74 -104 -74 -128 0 -7 -9 -25 -20
-40 -11 -16 -22 -52 -26 -88 -6 -58 -5 -61 21 -78 30 -20 86 -19 125 1 16 9
43 11 75 7 41 -5 55 -2 76 14 14 11 43 24 64 28 22 4 44 12 50 18 19 19 46 79
37 85 -4 3 -13 17 -20 31 -7 14 -19 36 -27 50 -8 14 -15 42 -15 63 0 20 -4 37
-10 37 -5 0 -10 9 -10 19 0 11 -6 26 -14 33 -7 8 -17 28 -20 45 -5 20 -15 33
-29 37 -35 9 -42 7 -73 -16z m45 -156 c-14 -5 -10 -35 6 -56 8 -11 15 -27 15
-37 0 -9 7 -22 15 -29 18 -15 19 -30 2 -30 -7 0 -23 -7 -36 -16 -15 -11 -46
-17 -91 -18 -74 -1 -81 6 -42 47 12 13 22 33 22 45 0 28 16 57 54 99 28 31 31
32 46 15 10 -9 13 -18 9 -20z"/>
<path d="M6068 6824 c-10 -3 -18 -9 -18 -13 0 -4 -9 -18 -20 -31 -27 -31 -28
-120 -2 -143 19 -18 52 -23 52 -9 0 4 54 8 121 7 105 0 123 2 137 19 16 17 24
66 13 76 -3 3 -11 14 -17 25 -6 11 -24 25 -41 30 -16 6 -38 16 -47 24 -17 14
-145 25 -178 15z"/>
<path d="M697 3503 c-12 -12 -7 -50 8 -63 9 -7 27 -10 43 -7 42 8 50 -2 55
-72 2 -35 8 -66 13 -70 5 -3 14 -19 19 -36 9 -26 17 -31 55 -37 25 -3 68 -7
97 -7 28 -1 55 -5 58 -11 15 -24 70 9 90 55 11 26 13 75 3 75 -4 0 -8 7 -8 15
0 8 -7 15 -15 15 -8 0 -19 9 -25 20 -6 11 -17 20 -25 20 -8 0 -15 4 -15 9 0
10 -47 20 -132 28 -53 4 -57 7 -60 31 -3 25 -7 27 -45 26 -24 0 -43 3 -43 8 0
10 -64 11 -73 1z"/>
<path d="M6095 2119 c-19 -17 -35 -28 -35 -25 0 4 -6 1 -13 -6 -8 -7 -12 -20
-9 -30 2 -10 0 -24 -6 -31 -6 -6 -15 -34 -20 -62 -5 -27 -12 -57 -15 -65 -4
-8 3 -26 13 -39 l20 -24 298 -4 297 -5 30 -33 c17 -17 41 -35 55 -38 14 -4 33
-20 42 -37 10 -17 25 -33 35 -37 10 -4 21 -11 25 -17 4 -7 58 -12 129 -15 158
-4 158 -4 159 151 0 114 -4 138 -26 138 -8 0 -14 9 -14 21 0 24 -67 89 -92 89
-10 0 -18 5 -18 10 0 6 -5 10 -12 10 -6 0 -22 10 -36 23 -23 22 -27 22 -353
25 -276 3 -329 6 -329 18 0 10 -13 14 -45 14 -35 0 -51 -6 -80 -31z m419 -99
c259 0 297 -2 303 -16 3 -8 15 -14 27 -13 36 4 116 -42 116 -66 0 -6 9 -18 20
-28 16 -14 20 -29 20 -82 l0 -65 -54 0 c-36 0 -56 4 -59 14 -3 7 -17 16 -31
20 -15 4 -39 20 -55 36 -15 17 -42 33 -60 36 -17 4 -31 12 -31 20 0 7 -12 22
-26 33 -25 20 -39 21 -248 21 -121 0 -244 3 -272 6 -46 6 -51 9 -46 28 3 11 9
27 15 34 5 6 6 12 2 12 -4 0 5 12 20 26 l29 27 17 -22 c17 -21 23 -21 313 -21z"/>
<path d="M7158 1791 c-14 -14 -18 -35 -18 -104 0 -71 -3 -87 -15 -87 -8 0 -15
-5 -15 -11 0 -5 -4 -8 -9 -5 -17 11 -33 -23 -26 -56 15 -69 13 -68 270 -68
288 0 268 -12 263 158 -1 66 -7 124 -11 129 -5 4 -26 7 -47 7 -24 -1 -41 4
-44 12 -3 7 -21 16 -40 20 -20 3 -36 10 -36 14 0 4 -57 8 -127 8 -108 0 -131
-3 -145 -17z m262 -96 c7 -8 21 -15 31 -15 11 0 19 -4 19 -9 0 -5 9 -11 20
-14 16 -4 20 -14 20 -51 l0 -46 -135 0 -135 0 0 75 0 75 84 0 c62 0 87 -4 96
-15z"/>
<path d="M6663 1473 c-13 -8 -23 -23 -23 -32 0 -26 42 -61 73 -61 15 0 27 -4
27 -10 0 -6 30 -10 70 -10 70 0 71 0 77 30 3 17 10 30 16 30 7 0 7 4 -1 12 -7
7 -12 20 -12 29 0 12 -6 17 -20 14 -11 -2 -20 0 -20 6 0 16 -162 10 -187 -8z"/>
<path d="M7736 1474 c-30 -30 -11 -84 29 -84 15 0 29 -9 36 -21 9 -17 17 -20
44 -16 21 3 40 0 52 -8 27 -21 36 -18 56 16 24 43 21 78 -9 105 -22 21 -35 24
-109 24 -63 0 -88 -4 -99 -16z"/>
</g>
</svg>
